<svg width="200" height="200" viewBox="0 0 200 200" fill="none" xmlns="http://www.w3.org/2000/svg">
<g clip-path="url(#clip0_21_506)">
<path d="M189.275 33.975C186.931 31.162 183.996 28.8996 180.68 27.3485C177.363 25.7973 173.745 24.9955 170.083 25H35.35L35 22.075C34.2837 15.9951 31.3615 10.3894 26.7874 6.32065C22.2133 2.25186 16.3052 0.00284828 10.1833 0L8.33333 0C6.1232 0 4.00358 0.877974 2.44078 2.44078C0.877974 4.00358 0 6.1232 0 8.33333C0 10.5435 0.877974 12.6631 2.44078 14.2259C4.00358 15.7887 6.1232 16.6667 8.33333 16.6667H10.1833C12.2244 16.6669 14.1945 17.4163 15.7198 18.7726C17.2451 20.129 18.2195 21.9979 18.4583 24.025L29.925 121.525C31.1154 131.665 35.9873 141.015 43.6159 147.8C51.2445 154.585 61.0988 158.334 71.3083 158.333H158.333C160.543 158.333 162.663 157.455 164.226 155.893C165.789 154.33 166.667 152.21 166.667 150C166.667 147.79 165.789 145.67 164.226 144.107C162.663 142.545 160.543 141.667 158.333 141.667H71.3083C66.1505 141.652 61.1233 140.043 56.9161 137.059C52.7089 134.075 49.5276 129.863 47.8083 125H147.142C156.911 125.001 166.369 121.569 173.865 115.304C181.361 109.039 186.417 100.339 188.15 90.725L194.692 54.4417C195.345 50.8417 195.198 47.1422 194.262 43.6053C193.326 40.0684 191.623 36.7806 189.275 33.975ZM178.333 51.4833L171.783 87.7667C170.743 93.5417 167.704 98.7666 163.199 102.527C158.694 106.287 153.01 108.342 147.142 108.333H45.1583L37.3167 41.6667H170.083C171.308 41.6594 172.518 41.9218 173.629 42.4355C174.741 42.9491 175.725 43.7012 176.513 44.6384C177.3 45.5756 177.872 46.6748 178.186 47.8578C178.501 49.0409 178.551 50.2787 178.333 51.4833Z" fill="#E9E9E9"/>
<path d="M58.3346 200.005C67.5393 200.005 75.0012 192.543 75.0012 183.339C75.0012 174.134 67.5393 166.672 58.3346 166.672C49.1298 166.672 41.6679 174.134 41.6679 183.339C41.6679 192.543 49.1298 200.005 58.3346 200.005Z" fill="#E9E9E9"/>
<path d="M141.667 200.005C150.871 200.005 158.333 192.543 158.333 183.339C158.333 174.134 150.871 166.672 141.667 166.672C132.462 166.672 125 174.134 125 183.339C125 192.543 132.462 200.005 141.667 200.005Z" fill="#E9E9E9"/>
</g>
<defs>
<clipPath id="clip0_21_506">
<rect width="200" height="200" fill="white"/>
</clipPath>
</defs>
</svg>
